<?xml version="1.0"?><svg fill="#FFFFFF" xmlns="http://www.w3.org/2000/svg"  viewBox="0 0 30 30" width="90px" height="90px">    <path d="M 6 4 C 4.895 4 4 4.895 4 6 L 4 24 C 4 25.105 4.895 26 6 26 L 7.5566406 26 C 7.2126406 25.409 7 24.732 7 24 L 7 6 C 7 5.268 7.2126406 4.591 7.5566406 4 L 6 4 z M 11 4 C 9.895 4 9 4.895 9 6 L 9 24 C 9 25.105 9.895 26 11 26 L 24 26 C 25.105 26 26 25.105 26 24 L 26 10.5 C 26 10.235 25.895031 9.9809688 25.707031 9.7929688 L 20.207031 4.2929688 C 20.019031 4.1049688 19.765 4 19.5 4 L 11 4 z M 19 5.9042969 L 24.095703 11 L 20 11 C 19.448 11 19 10.552 19 10 L 19 5.9042969 z M 14 15 L 21 15 C 21.552 15 22 15.448 22 16 C 22 16.552 21.552 17 21 17 L 14 17 C 13.448 17 13 16.552 13 16 C 13 15.448 13.448 15 14 15 z M 14 19 L 19 19 C 19.552 19 20 19.448 20 20 C 20 20.552 19.552 21 19 21 L 14 21 C 13.448 21 13 20.552 13 20 C 13 19.448 13.448 19 14 19 z"/></svg>