<?xml version="1.0" encoding="iso-8859-1"?>
<!-- Generator: Adobe Illustrator 24.1.2, SVG Export Plug-In . SVG Version: 6.00 Build 0)  -->
<svg version="1.1" baseProfile="basic" id="Layer_1"
	 xmlns="http://www.w3.org/2000/svg" xmlns:xlink="http://www.w3.org/1999/xlink" x="0px" y="0px" viewBox="0 0 96 96"
	 xml:space="preserve">
<path style="opacity:0.3;fill:#0FD2FF;" d="M78.401,78H17.283C12.858,78,10,75.178,10,70.811V25.86c0-4.848,2.881-7.86,7.519-7.86
	h60.85c2.396,0,4.303,0.716,5.667,2.128c0.947,0.98,2.053,2.781,1.963,5.803V32c0,1.054-0.543,1.98-1.365,2.516
	c0.796,0.539,1.318,1.451,1.318,2.484c0,3.58,0.008,6.894,0.018,10.795c0.013,5.586,0.03,12.375,0.03,22.864
	C86.001,75.255,83.16,78,78.401,78z M17.519,24C16.572,24,16,24,16,25.86v44.951C16,71.734,16.055,72,17.283,72h61.119
	c1.6,0,1.6-0.257,1.6-1.341c0-10.482-0.017-17.267-0.03-22.849c-0.01-3.907-0.018-7.226-0.018-10.81c0-1.054,0.543-1.98,1.365-2.516
	C80.522,33.945,80,33.034,80,32v-6.117c0-0.034,0-0.069,0.002-0.103c0.029-0.85-0.133-1.33-0.28-1.482
	C79.583,24.154,79.154,24,78.369,24H17.519z"/>
<path style="opacity:0.3;fill:#0FD2FF;" d="M78.401,77H17.283C13.407,77,11,74.628,11,70.811V25.86c0-4.295,2.437-6.86,6.519-6.86
	h60.85c2.114,0,3.779,0.613,4.948,1.824c1.19,1.232,1.756,2.957,1.682,5.128L85,32c0,1.104-0.896,2-2,2s-2-0.896-2-2v-6.117
	c0.026-0.788-0.051-1.755-0.559-2.28C80.054,23.203,79.357,23,78.369,23h-60.85C16.007,23,15,23.486,15,25.86v44.951
	C15,72.162,15.382,73,17.283,73h61.119c2.21,0,2.6-0.755,2.6-2.341c0-10.483-0.017-17.269-0.03-22.852
	c-0.01-3.906-0.018-7.224-0.018-10.807c0-1.104,0.896-2,2-2s2,0.896,2,2c0,3.58,0.008,6.895,0.018,10.797
	c0.013,5.585,0.03,12.374,0.03,22.861C85.001,74.688,82.596,77,78.401,77z"/>
<path style="opacity:0.3;fill:#0FD2FF;" d="M71,63c-1.657,0-3-1.343-3-3V35c0-1.657,1.343-3,3-3s3,1.343,3,3v25
	C74,61.657,72.657,63,71,63z"/>
<path style="opacity:0.3;fill:#0FD2FF;" d="M71,62c-1.104,0-2-0.896-2-2V35c0-1.104,0.896-2,2-2s2,0.896,2,2v25
	C73,61.104,72.104,62,71,62z"/>
<path style="opacity:0.3;fill:#0FD2FF;" d="M49,63c-1.657,0-3-1.343-3-3V38c0-3.309,2.691-6,6-6h4c3.88,0,7.037,1.809,8.662,4.962
	c1.734,3.365,1.375,7.765-0.893,10.949c-2.271,3.186-5.984,4.667-10.197,4.058c-0.608-0.087-1.146-0.352-1.572-0.733V60
	C52,61.657,50.657,63,49,63z M52,38v8.764c0.638-0.57,1.517-0.864,2.428-0.733c1.966,0.286,3.506-0.27,4.455-1.602
	c0.967-1.358,1.155-3.342,0.446-4.718C58.744,38.576,57.624,38,56,38H52z"/>
<path style="opacity:0.3;fill:#0FD2FF;" d="M49,62c-1.104,0-2-0.896-2-2V38c0-2.757,2.243-5,5-5h4c3.492,0,6.326,1.611,7.773,4.42
	c1.567,3.042,1.238,7.024-0.819,9.911c-2.045,2.87-5.415,4.2-9.24,3.648c-1.093-0.158-1.852-1.172-1.694-2.265
	s1.17-1.854,2.265-1.694c2.981,0.43,4.588-0.856,5.412-2.011c1.191-1.672,1.405-4.04,0.521-5.757C59.458,37.779,58,37,56,37h-4
	c-0.551,0-1,0.449-1,1v22C51,61.104,50.104,62,49,62z"/>
<path style="opacity:0.3;fill:#0FD2FF;" d="M22.001,63.001c-0.3,0-0.604-0.045-0.904-0.14c-1.58-0.499-2.457-2.185-1.958-3.764
	l6.619-20.956c1.208-4.444,4.101-5.979,6.375-5.926c2.293,0.05,5.092,1.694,6.098,6.149l1.876,6.906
	c0.435,1.599-0.51,3.248-2.108,3.682c-1.599,0.434-3.248-0.51-3.682-2.108l-1.894-6.973c-0.013-0.047-0.024-0.095-0.035-0.143
	c-0.114-0.519-0.26-0.894-0.393-1.151c-0.143,0.248-0.311,0.623-0.458,1.177c-0.012,0.044-0.025,0.089-0.039,0.132l-6.638,21.017
	C24.457,62.183,23.275,63,22.001,63.001z"/>
<path style="opacity:0.3;fill:#0FD2FF;" d="M22,62c-0.2,0-0.402-0.03-0.603-0.093c-1.053-0.333-1.637-1.457-1.305-2.51l6.638-21.017
	c1.021-3.85,3.46-5.214,5.38-5.166c1.926,0.042,4.293,1.494,5.161,5.44l1.871,6.877c0.29,1.066-0.34,2.165-1.406,2.455
	c-1.07,0.29-2.165-0.34-2.455-1.406l-1.894-6.973c-0.406-1.836-1.14-2.39-1.364-2.395c-0.001,0-0.002,0-0.003,0
	c-0.229,0-0.985,0.535-1.45,2.283l-6.664,21.105C23.638,61.455,22.85,62,22,62z"/>
<path style="opacity:0.3;fill:#0FD2FF;" d="M40.999,63.001c-1.299,0-2.496-0.85-2.878-2.16c-0.473-1.618-0.807-2.966-1.075-4.049
	c-0.263-1.063-0.559-2.256-0.775-2.7c-0.756-0.213-3.135-0.162-5.646-0.105L30.065,54c-1.693,0.025-3.028-1.278-3.064-2.935
	c-0.036-1.657,1.278-3.028,2.935-3.064l0.558-0.012c8.662-0.188,10.561,0.026,12.377,7.362c0.268,1.083,0.572,2.31,1.009,3.808
	c0.465,1.59-0.448,3.256-2.038,3.721C41.561,62.961,41.277,63.001,40.999,63.001z"/>
<path style="opacity:0.3;fill:#0FD2FF;" d="M40.999,62c-0.866,0-1.664-0.566-1.919-1.439c-0.467-1.598-0.798-2.935-1.063-4.009
	c-0.427-1.725-0.765-3.088-1.162-3.303c-0.709-0.384-3.034-0.334-6.252-0.262L30.043,53c-1.092,0.038-2.019-0.852-2.042-1.957
	c-0.024-1.104,0.852-2.019,1.957-2.042l0.558-0.012c8.599-0.187,9.76,0.041,11.384,6.603c0.271,1.092,0.577,2.33,1.021,3.848
	c0.31,1.061-0.299,2.171-1.359,2.481C41.374,61.975,41.185,62,40.999,62z"/>
<path style="fill:#0FD2FF;" d="M78.401,76H17.283C13.975,76,12,74.06,12,70.811V25.86c0-3.724,2.012-5.86,5.519-5.86h60.85
	c1.833,0,3.256,0.511,4.229,1.519c0.995,1.029,1.466,2.509,1.401,4.399L84,32c0,0.552-0.448,1-1,1s-1-0.448-1-1v-6.117
	c0.046-1.361-0.237-2.351-0.84-2.975C80.578,22.306,79.639,22,78.369,22h-60.85C15.151,22,14,23.263,14,25.86v44.951
	C14,72.957,15.074,74,17.283,74h61.119c2.523,0,3.6-0.999,3.6-3.341c0-10.484-0.017-17.27-0.03-22.854
	C81.961,43.9,81.954,40.583,81.954,37c0-0.552,0.448-1,1-1s1,0.448,1,1c0,3.581,0.008,6.896,0.018,10.8
	c0.013,5.585,0.03,12.373,0.03,22.859C84.001,74.103,82.012,76,78.401,76z"/>
<path style="fill:#0FD2FF;" d="M71,61c-0.552,0-1-0.448-1-1V35c0-0.552,0.448-1,1-1s1,0.448,1,1v25C72,60.552,71.552,61,71,61z"/>
<path style="fill:#0FD2FF;" d="M49,61c-0.552,0-1-0.448-1-1V38c0-2.206,1.794-4,4-4h4c3.15,0,5.595,1.377,6.884,3.878
	c1.4,2.717,1.101,6.283-0.744,8.872c-1.821,2.556-4.841,3.736-8.283,3.239c-0.547-0.079-0.926-0.586-0.847-1.132
	c0.079-0.547,0.591-0.921,1.132-0.847c2.721,0.394,4.978-0.468,6.369-2.42c1.399-1.964,1.644-4.759,0.595-6.795
	C60.178,36.993,58.364,36,56,36h-4c-1.103,0-2,0.897-2,2v22C50,60.552,49.552,61,49,61z"/>
<path style="fill:#0FD2FF;" d="M22,61c-0.1,0-0.202-0.015-0.302-0.047c-0.526-0.167-0.819-0.728-0.652-1.255l6.638-21.017
	c0.885-3.333,2.839-4.519,4.405-4.467c1.546,0.034,3.463,1.274,4.206,4.655l1.882,6.925c0.145,0.533-0.17,1.083-0.703,1.227
	c-0.535,0.146-1.083-0.17-1.227-0.703l-1.894-6.973c-0.419-1.9-1.32-3.111-2.308-3.132c-1.016-0.018-1.947,1.166-2.441,3.025
	l-6.651,21.062C22.819,60.728,22.425,61,22,61z"/>
<path style="fill:#0FD2FF;" d="M41,61c-0.433,0-0.832-0.284-0.959-0.72c-0.461-1.578-0.789-2.903-1.053-3.968
	c-0.62-2.501-0.901-3.533-1.657-3.942c-0.942-0.51-3.005-0.464-6.75-0.382L30.021,52c-0.539,0.005-1.009-0.426-1.021-0.979
	c-0.012-0.552,0.426-1.009,0.979-1.021l0.558-0.012c8.275-0.183,8.932-0.055,10.392,5.843c0.259,1.047,0.582,2.35,1.031,3.889
	c0.155,0.53-0.149,1.085-0.68,1.24C41.187,60.987,41.092,61,41,61z"/>
</svg>